<svg width="93" height="48" viewBox="0 0 93 48" fill="none" xmlns="http://www.w3.org/2000/svg">
<path d="M31.8923 6.69935C28.6073 2.67755 23.5698 0.103895 17.9221 0.103895V4.0276V6.65799C20.6086 6.7764 23.1063 7.60995 25.2237 8.97006C27.5735 10.4795 29.4549 12.6374 30.6063 15.1861C31.0766 16.227 31.4251 17.3331 31.634 18.4868C31.7835 19.3124 31.8615 20.1624 31.8615 21.0303C31.8615 26.0808 29.2199 30.5235 25.2237 33.0905C24.6968 33.4289 24.1465 33.7348 23.5755 34.0051C23.6137 34.1642 23.6487 34.3246 23.6802 34.4861C24.4703 34.2222 25.2356 33.9055 25.9719 33.5402C28.8375 32.1186 31.2628 29.9615 32.9924 27.3206C34.4572 25.084 35.4231 22.5003 35.7348 19.7224C35.7681 19.4251 35.794 19.1255 35.8122 18.8239C35.8334 18.4721 35.8442 18.1176 35.8442 17.7605C35.8442 13.5731 34.3645 9.72611 31.8923 6.69935Z" fill="url(#paint0_linear_2535_424)"/>
<path d="M2.12231 30.0261C5.14477 35.5708 11.0865 39.3409 17.9221 39.3409C18.0386 39.3409 18.1549 39.3398 18.271 39.3376C12.081 39.2086 6.83866 35.2852 4.84393 29.8333C4.59446 29.1514 4.39579 28.4457 4.25241 27.7205C4.23776 27.6464 4.22369 27.5721 4.2102 27.4975C4.0607 26.6719 3.98268 25.8219 3.98268 24.954C3.98268 18.1331 8.80079 12.4208 15.267 10.9403V6.77604V4.22002C7.27434 5.38939 1.00309 11.7575 0.109383 19.7224C0.0371057 20.3665 0 21.0211 0 21.6842C0 22.9558 0.136429 24.1959 0.395649 25.3912C0.751526 27.0322 1.33884 28.5888 2.12231 30.0261Z" fill="url(#paint1_linear_2535_424)"/>
<path d="M23.6802 34.4861C23.6487 34.3246 23.6137 34.1642 23.5755 34.0051C23.2031 32.454 22.5191 31.0215 21.5924 29.7753C21.5343 29.7007 21.477 29.6255 21.4204 29.5497C19.6386 27.1648 18.5859 24.2187 18.5859 21.0303C18.5859 19.6349 18.7875 18.2858 19.1637 17.0099C16.6372 18.9706 14.9334 21.9142 14.6462 25.2554C14.6177 25.5872 14.6032 25.9229 14.6032 26.2619C14.6032 27.6656 14.8526 29.012 15.3101 30.2603C15.6221 31.1115 16.907 32.425 17.5457 33.998C17.7634 34.5342 17.8928 34.9204 18.0305 35.3974L18.0361 35.4168C18.3932 36.6606 18.5847 37.9729 18.5858 39.329L18.5859 39.3409C18.5859 42.5452 17.5225 45.5049 15.7245 47.8961C19.9515 46.5098 23.1288 42.86 23.7752 38.406L23.7795 38.3764C23.8098 38.1632 23.8344 37.9483 23.853 37.7316C23.8816 37.3998 23.8961 37.0641 23.8961 36.7251C23.8961 35.9595 23.8219 35.211 23.6802 34.4861Z" fill="url(#paint2_linear_2535_424)"/>
<path d="M53.231 13.4273C55.2383 13.4273 56.8345 14.1155 58.0198 15.4919C59.205 16.8492 59.6447 18.5984 59.3389 20.7395C59.0521 22.7659 58.1632 24.4004 56.6721 25.643C55.2001 26.8664 53.2979 27.4782 50.9657 27.4782H48.3275L47.2665 33.5H42.1337L45.6607 13.4273H53.231ZM54.2347 20.4527C54.3685 19.8028 54.2633 19.2866 53.9192 18.9043C53.5751 18.5219 53.059 18.3308 52.3708 18.3308H49.9334L49.1878 22.6034H51.6825C52.3516 22.6034 52.9156 22.4122 53.3744 22.0299C53.8332 21.6284 54.12 21.1027 54.2347 20.4527ZM70.9327 19.1623H75.6928L73.1693 33.5H68.4092L68.61 32.3817C67.5012 33.3949 66.1056 33.9015 64.4234 33.9015C62.3778 33.9015 60.8581 33.1272 59.864 31.5788C58.889 30.0303 58.5736 28.2142 58.9177 26.1304C59.2427 24.1041 60.1029 22.374 61.4985 20.9402C62.894 19.4873 64.6241 18.7609 66.6887 18.7609C68.5239 18.7609 69.843 19.4204 70.6459 20.7395L70.9327 19.1623ZM64.1079 28.5965C64.5476 29.17 65.2167 29.4568 66.1152 29.4568C67.0137 29.4568 67.7879 29.1796 68.4379 28.6252C69.0879 28.0708 69.4989 27.3348 69.6709 26.4172V26.3312C69.8239 25.3944 69.6805 24.6393 69.2408 24.0658C68.8011 23.4923 68.1225 23.2056 67.2049 23.2056C66.3064 23.2056 65.5321 23.4923 64.8822 24.0658C64.2322 24.6393 63.8307 25.3944 63.6778 26.3312C63.5249 27.2679 63.6682 28.023 64.1079 28.5965ZM87.3417 19.1623H92.8186L85.5351 33.0699C84.2925 35.4595 82.8779 37.1226 81.2912 38.0594C79.7045 39.0152 77.8501 39.4071 75.7282 39.2351L76.5311 34.7617C77.5634 34.7617 78.3376 34.6279 78.8538 34.3603C79.3699 34.1117 79.8478 33.6338 80.2875 32.9265L77.0759 19.1623H82.1228L83.6139 27.4495L87.3417 19.1623Z" fill="#252525"/>
<defs>
<linearGradient id="paint0_linear_2535_424" x1="17.9221" y1="0.103895" x2="17.9221" y2="47.8961" gradientUnits="userSpaceOnUse">
<stop stop-color="#325F38"/>
<stop offset="1" stop-color="#7AAA4F"/>
</linearGradient>
<linearGradient id="paint1_linear_2535_424" x1="17.9221" y1="0.103895" x2="17.9221" y2="47.8961" gradientUnits="userSpaceOnUse">
<stop stop-color="#325F38"/>
<stop offset="1" stop-color="#7AAA4F"/>
</linearGradient>
<linearGradient id="paint2_linear_2535_424" x1="17.9221" y1="0.103895" x2="17.9221" y2="47.8961" gradientUnits="userSpaceOnUse">
<stop stop-color="#325F38"/>
<stop offset="1" stop-color="#7AAA4F"/>
</linearGradient>
</defs>
</svg>
